<svg xmlns="http://www.w3.org/2000/svg" width="128" height="128" viewBox="0 0 100 100">
  <g >
    <rect x="0" y="0" width="100" height="100" fill="#6abe30"/>
    <rect x="18" y="24" width="64" height="56" fill="#b0b0b0"/>
    <rect x="18" y="24" width="64" height="4" fill="#7a7a7a"/>
    <rect x="20" y="18" width="5" height="6" fill="#9a9a9a"/>
    <rect x="28" y="18" width="5" height="6" fill="#9a9a9a"/>
    <rect x="36" y="18" width="5" height="6" fill="#9a9a9a"/>
    <rect x="44" y="18" width="5" height="6" fill="#9a9a9a"/>
    <rect x="52" y="18" width="5" height="6" fill="#9a9a9a"/>
    <rect x="60" y="18" width="5" height="6" fill="#9a9a9a"/>
    <rect x="68" y="18" width="5" height="6" fill="#9a9a9a"/>
    <rect x="76" y="18" width="5" height="6" fill="#9a9a9a"/>
    <rect x="44" y="58" width="12" height="22" fill="#5a3a1a"/>
    <polygon points="44,58 56,58 50,50" fill="#5a3a1a"/>
    <g transform="translate(12,0)">
      <rect x="0" y="30" width="14" height="50" fill="#6a6a6a"/>
      <rect x="2" y="38" width="4" height="5" fill="#3d6fb0"/>
      <rect x="2" y="42" width="4" height="5" fill="#3d6fb0"/>
      <rect x="2" y="46" width="4" height="5" fill="#3d6fb0"/>
      <polygon points="0,30 14,30 7,18" fill="#b5422d"/>
    </g>
    <g transform="translate(74,0)">
      <rect x="0" y="30" width="14" height="50" fill="#6a6a6a"/>
      <rect x="8" y="38" width="4" height="5" fill="#3d6fb0"/>
      <rect x="8" y="42" width="4" height="5" fill="#3d6fb0"/>
      <rect x="8" y="46" width="4" height="5" fill="#3d6fb0"/>
      <polygon points="0,30 14,30 7,18" fill="#b5422d"/>
    </g>
    <g transform="translate(50,18)">
      <rect x="0" y="0" width="1" height="12" fill="#4a4a4a"/>
      <polygon points="1,1 10,4 1,7" fill="#d9b53d"/>
    </g>
  </g>
</svg>
