<svg xmlns="http://www.w3.org/2000/svg" width="64" height="64" viewBox="0 0 100 100">
  <g >
    <rect x="0" y="0" width="100" height="100" fill="#6abe30"/>
    <polygon points="60.67421100940555,8.2298005791381 59.67421100940555,13.339588738977909 61.67421100940555,13.339588738977909" fill="#4f8f24"/>
    <polygon points="90.40828126762062,89.34374345000833 89.40828126762062,93.46815746184438 91.40828126762062,93.46815746184438" fill="#4f8f24"/>
    <polygon points="59.47846429049969,68.54242385551333 58.47846429049969,73.24561166390777 60.47846429049969,73.24561166390777" fill="#4f8f24"/>
    <polygon points="91.56512743700296,46.24277468211949 90.56512743700296,51.197927951812744 92.56512743700296,51.197927951812744" fill="#4f8f24"/>
    <polygon points="19.67042100522667,41.914560267701745 18.67042100522667,45.904655853286386 20.67042100522667,45.904655853286386" fill="#4f8f24"/>
    <polygon points="20.977423334494233,49.088087217882276 19.977423334494233,52.35756675153971 21.977423334494233,52.35756675153971" fill="#4f8f24"/>
    <polygon points="41.14802255202085,72.43707418069243 40.14802255202085,76.58052087482065 42.14802255202085,76.58052087482065" fill="#4f8f24"/>
    <polygon points="24.03338058758527,11.589295639656484 23.03338058758527,16.29882346279919 25.03338058758527,16.29882346279919" fill="#4f8f24"/>
    <polygon points="57.59212944004685,75.08947411365807 56.59212944004685,79.2689535971731 58.59212944004685,79.2689535971731" fill="#4f8f24"/>
    <polygon points="25.259462079033256,63.282890144735575 24.259462079033256,68.46721959114075 26.259462079033256,68.46721959114075" fill="#4f8f24"/>
    <polygon points="71.7091986052692,24.19637861661613 70.7091986052692,30.080169543623924 72.7091986052692,30.080169543623924" fill="#4f8f24"/>
    <polygon points="46.147425370290875,72.71476126555353 45.147425370290875,79.69289727136493 47.147425370290875,79.69289727136493" fill="#4f8f24"/>
    <polygon points="28.10399914905429,71.5881087007001 27.10399914905429,75.20119246840477 29.10399914905429,75.20119246840477" fill="#4f8f24"/>
    <polygon points="35.1598560474813,42.70854591112584 34.1598560474813,46.70539654698223 36.1598560474813,46.70539654698223" fill="#4f8f24"/>
    <polygon points="20.775414841249585,68.99280563555658 19.775414841249585,74.29817143082619 21.775414841249585,74.29817143082619" fill="#4f8f24"/>
    <polygon points="18.685713249258697,30.231240362860262 17.685713249258697,33.42613422125578 19.685713249258697,33.42613422125578" fill="#4f8f24"/>
    <polygon points="60.266483443789184,80.72485353890806 59.266483443789184,84.67883036192507 61.266483443789184,84.67883036192507" fill="#4f8f24"/>
    <polygon points="91.10770898498595,68.33763035479933 90.10770898498595,72.9468219326809 92.10770898498595,72.9468219326809" fill="#4f8f24"/>
  </g>
</svg>
